<?xml version="1.0" encoding="utf-8"?>
<!-- Generator: Adobe Illustrator 15.0.2, SVG Export Plug-In . SVG Version: 6.00 Build 0)  -->
<!DOCTYPE svg PUBLIC "-//W3C//DTD SVG 1.1//EN" "http://www.w3.org/Graphics/SVG/1.1/DTD/svg11.dtd">
<svg version="1.1" id="Layer_1" xmlns="http://www.w3.org/2000/svg" xmlns:xlink="http://www.w3.org/1999/xlink" x="0px" y="0px"
	 width="50px" height="50px" viewBox="0 0 50 50" enable-background="new 0 0 50 50" xml:space="preserve">
<path fill="#FFFFFF" d="M25,0C11.193,0,0,11.192,0,24.999C0,38.807,11.193,50,25,50c13.806,0,25-11.193,25-25.001
	C50,11.192,38.807,0,25,0z M8.249,28.394c-0.012,0.079-0.07,0.135-0.14,0.135c-0.073,0-0.13-0.056-0.141-0.136l-0.256-1.913
	l0.256-1.944c0.01-0.082,0.067-0.139,0.141-0.139c0.07,0,0.129,0.058,0.14,0.138l0.304,1.945L8.249,28.394z M9.549,29.558
	c-0.012,0.084-0.072,0.142-0.146,0.142c-0.074,0-0.136-0.06-0.146-0.144l-0.345-3.076l0.345-3.146
	c0.01-0.082,0.072-0.141,0.146-0.141c0.073,0,0.133,0.058,0.146,0.141l0.391,3.146L9.549,29.558z M10.955,30.078
	c-0.01,0.099-0.085,0.172-0.176,0.172c-0.092,0-0.166-0.073-0.175-0.173l-0.327-3.598l0.327-3.732
	c0.01-0.101,0.083-0.174,0.175-0.174c0.091,0,0.166,0.073,0.176,0.174l0.371,3.732L10.955,30.078z M12.373,30.19
	c-0.011,0.117-0.098,0.202-0.205,0.202c-0.109,0-0.198-0.085-0.206-0.202l-0.31-3.71l0.31-3.834
	c0.008-0.117,0.097-0.203,0.206-0.203c0.107,0,0.194,0.086,0.205,0.202l0.35,3.835L12.373,30.19z M13.802,30.222
	c-0.009,0.133-0.11,0.232-0.235,0.232c-0.127,0-0.228-0.1-0.236-0.232l-0.292-3.741l0.292-3.557
	c0.008-0.133,0.109-0.233,0.236-0.233c0.125,0,0.227,0.099,0.235,0.23l0.331,3.56L13.802,30.222z M15.242,30.224v-0.002
	c-0.008,0.148-0.125,0.265-0.265,0.265c-0.142,0-0.258-0.116-0.266-0.263l-0.273-3.742l0.273-5.787
	c0.007-0.147,0.124-0.263,0.266-0.263c0.14,0,0.257,0.116,0.265,0.263l0.311,5.787L15.242,30.224z M16.693,30.202V30.2
	c-0.008,0.164-0.138,0.292-0.295,0.292c-0.158,0-0.289-0.128-0.295-0.291l-0.256-3.719l0.256-7.111
	c0.007-0.165,0.137-0.293,0.295-0.293c0.158,0,0.287,0.128,0.295,0.293l0.289,7.111L16.693,30.202z M18.156,30.164v-0.003
	c-0.007,0.182-0.15,0.323-0.325,0.323c-0.176,0-0.319-0.142-0.325-0.321l-0.239-3.679l0.239-7.706
	c0.006-0.182,0.149-0.323,0.325-0.323c0.175,0,0.318,0.141,0.325,0.323l0.269,7.706L18.156,30.164z M19.63,30.139l0,0.003v-0.001
	c-0.008,0.197-0.162,0.352-0.355,0.352c-0.193,0-0.349-0.155-0.354-0.351l-0.221-3.657l0.221-7.965
	c0.006-0.199,0.162-0.353,0.355-0.353s0.349,0.154,0.355,0.353l0.249,7.965l-0.249,3.656C19.629,30.141,19.63,30.14,19.63,30.139z
	 M21.115,30.106v-0.002c-0.006,0.215-0.175,0.385-0.385,0.385c-0.211,0-0.38-0.17-0.385-0.383l-0.204-3.622l0.204-7.762
	c0.004-0.213,0.173-0.382,0.385-0.382c0.21,0,0.378,0.167,0.385,0.382l0.228,7.762L21.115,30.106z M22.611,30.085v-0.004
	c-0.005,0.232-0.188,0.414-0.415,0.414s-0.41-0.182-0.415-0.41l-0.185-3.6l0.185-7.479c0.004-0.232,0.187-0.414,0.415-0.414
	s0.41,0.182,0.415,0.412l0.208,7.481L22.611,30.085z M24.119,30.062V30.06c-0.004,0.244-0.205,0.443-0.445,0.443
	c-0.241,0-0.44-0.199-0.444-0.441c0,0-0.168-3.571-0.168-3.577l0.168-8.898c0.004-0.243,0.203-0.442,0.444-0.442
	c0.241,0,0.441,0.199,0.445,0.442l0.187,8.9L24.119,30.062z M25.62,30.011v-0.003c-0.003,0.26-0.216,0.473-0.474,0.473
	c-0.259,0-0.472-0.213-0.475-0.471l-0.194-3.523l0.194-9.706c0.003-0.26,0.216-0.474,0.475-0.474c0.257,0,0.47,0.213,0.474,0.473
	l0.211,9.707L25.62,30.011z M38.437,30.512c-0.077,0-11.933-0.005-11.944-0.006c-0.258-0.027-0.462-0.247-0.466-0.511V16.319
	c0.004-0.251,0.089-0.38,0.416-0.507c0.837-0.323,1.783-0.516,2.756-0.516c3.972,0,7.228,3.047,7.571,6.93
	c0.513-0.214,1.076-0.333,1.667-0.333c2.379,0,4.309,1.928,4.309,4.31C42.745,28.582,40.815,30.512,38.437,30.512z"/>
</svg>
