<?xml version="1.0" encoding="utf-8"?>
<!-- Generator: Adobe Illustrator 15.0.2, SVG Export Plug-In . SVG Version: 6.00 Build 0)  -->
<!DOCTYPE svg PUBLIC "-//W3C//DTD SVG 1.1//EN" "http://www.w3.org/Graphics/SVG/1.1/DTD/svg11.dtd">
<svg version="1.1" id="Layer_1" xmlns="http://www.w3.org/2000/svg" xmlns:xlink="http://www.w3.org/1999/xlink" x="0px" y="0px"
	 width="50px" height="50px" viewBox="0 0 50 50" enable-background="new 0 0 50 50" xml:space="preserve">
<path fill="#FFFFFF" d="M25.001,0C11.194,0,0,11.196,0,25.001C0,38.809,11.194,50,25.001,50C38.809,50,50,38.809,50,25.001
	C50,11.196,38.809,0,25.001,0z M37.596,19.96c0.013,0.271,0.017,0.542,0.017,0.815c0,8.326-6.336,17.927-17.925,17.927
	c-3.558,0-6.87-1.043-9.658-2.831c0.493,0.058,0.995,0.088,1.502,0.088c2.953,0,5.669-1.008,7.825-2.697
	c-2.757-0.052-5.083-1.873-5.885-4.375C13.856,28.961,14.25,29,14.657,29c0.575,0,1.131-0.077,1.661-0.222
	c-2.883-0.579-5.055-3.126-5.055-6.177c0-0.028,0-0.054,0.001-0.08c0.849,0.472,1.821,0.755,2.854,0.789
	c-1.691-1.132-2.804-3.059-2.804-5.245c0-1.155,0.311-2.238,0.854-3.167c3.107,3.812,7.75,6.32,12.987,6.583
	c-0.108-0.461-0.163-0.942-0.163-1.436c0-3.479,2.821-6.3,6.3-6.3c1.812,0,3.45,0.766,4.599,1.989
	c1.436-0.282,2.784-0.807,4.001-1.529c-0.471,1.472-1.469,2.707-2.771,3.486c1.275-0.153,2.489-0.492,3.619-0.993
	C39.895,17.961,38.826,19.072,37.596,19.96z"/>
</svg>
