<?xml version="1.0" encoding="utf-8"?>
<!-- Generator: Adobe Illustrator 15.0.2, SVG Export Plug-In . SVG Version: 6.00 Build 0)  -->
<!DOCTYPE svg PUBLIC "-//W3C//DTD SVG 1.1//EN" "http://www.w3.org/Graphics/SVG/1.1/DTD/svg11.dtd">
<svg version="1.1" id="Layer_1" xmlns="http://www.w3.org/2000/svg" xmlns:xlink="http://www.w3.org/1999/xlink" x="0px" y="0px"
	 width="300px" height="50px" viewBox="0 0 300 50" enable-background="new 0 0 300 50" xml:space="preserve">
<path fill="#FFFFFF" d="M124.625,0C111.025,0,100,11.027,100,24.625c0,13.6,11.025,24.623,24.625,24.623
	s24.625-11.023,24.625-24.623C149.25,11.027,138.225,0,124.625,0z M131.144,24.521h-4.264c0,6.814,0,15.207,0,15.207h-6.321
	c0,0,0-8.307,0-15.207h-3.005v-5.369h3.005v-3.479c0-2.49,1.183-6.377,6.379-6.377l4.68,0.018v5.215c0,0-2.846,0-3.398,0
	c-0.554,0-1.339,0.277-1.339,1.461v3.162h4.817L131.144,24.521z"/>
<path fill="#FFFFFF" d="M24.625,0C11.025,0,0,11.023,0,24.623s11.025,24.625,24.625,24.625c13.599,0,24.624-11.025,24.624-24.625
	S38.224,0,24.625,0z M8.125,27.967C8.113,28.045,8.056,28.1,7.986,28.1c-0.072,0-0.128-0.055-0.138-0.134l-0.252-1.884l0.252-1.916
	c0.01-0.08,0.066-0.137,0.138-0.137c0.07,0,0.127,0.057,0.138,0.136l0.299,1.917L8.125,27.967z M9.406,29.113
	c-0.012,0.082-0.071,0.139-0.144,0.139s-0.133-0.059-0.144-0.141l-0.339-3.029l0.339-3.1c0.01-0.08,0.071-0.139,0.144-0.139
	s0.132,0.057,0.144,0.139l0.385,3.1L9.406,29.113z M10.791,29.626c-0.01,0.097-0.083,0.169-0.173,0.169
	c-0.091,0-0.164-0.072-0.173-0.17l-0.322-3.543l0.322-3.677c0.009-0.099,0.082-0.171,0.173-0.171c0.089,0,0.163,0.072,0.173,0.171
	l0.366,3.677L10.791,29.626z M12.187,29.736c-0.01,0.115-0.097,0.199-0.202,0.199c-0.107,0-0.195-0.084-0.203-0.199l-0.305-3.653
	l0.305-3.777c0.008-0.115,0.095-0.2,0.203-0.2c0.105,0,0.191,0.085,0.202,0.199l0.345,3.778L12.187,29.736z M13.594,29.768
	c-0.009,0.131-0.108,0.229-0.231,0.229c-0.125,0-0.225-0.098-0.232-0.229l-0.287-3.685l0.287-3.504
	c0.008-0.131,0.107-0.229,0.232-0.229c0.123,0,0.223,0.098,0.231,0.227l0.326,3.507L13.594,29.768z M15.013,29.77v-0.002
	c-0.008,0.146-0.123,0.26-0.261,0.26c-0.139,0-0.254-0.114-0.261-0.258l-0.27-3.686l0.27-5.701c0.007-0.145,0.122-0.259,0.261-0.259
	c0.138,0,0.253,0.114,0.261,0.259l0.306,5.701L15.013,29.77z M16.442,29.748v-0.002c-0.008,0.161-0.135,0.287-0.291,0.287
	s-0.284-0.126-0.291-0.286l-0.252-3.662l0.252-7.005c0.007-0.162,0.135-0.288,0.291-0.288s0.283,0.126,0.291,0.288l0.285,7.005
	L16.442,29.748z M17.883,29.711v-0.003c-0.007,0.179-0.147,0.317-0.32,0.317c-0.174,0-0.314-0.139-0.32-0.315l-0.235-3.624
	l0.235-7.59c0.006-0.179,0.146-0.318,0.32-0.318c0.172,0,0.313,0.14,0.32,0.318l0.265,7.59L17.883,29.711z M19.335,29.686l0,0.003
	v-0.001c-0.007,0.194-0.16,0.346-0.35,0.346s-0.344-0.152-0.349-0.345l-0.218-3.603l0.217-7.846c0.006-0.195,0.16-0.347,0.35-0.347
	c0.19,0,0.344,0.151,0.35,0.347l0.245,7.846l-0.245,3.602C19.334,29.688,19.335,29.687,19.335,29.686z M20.797,29.654v-0.002
	c-0.006,0.211-0.172,0.378-0.379,0.378c-0.208,0-0.375-0.167-0.379-0.376l-0.2-3.568l0.2-7.646c0.004-0.21,0.171-0.376,0.379-0.376
	c0.207,0,0.373,0.164,0.379,0.376l0.225,7.646L20.797,29.654z M22.272,29.633v-0.004c-0.005,0.229-0.185,0.407-0.409,0.407
	c-0.225,0-0.404-0.179-0.409-0.403l-0.183-3.546l0.183-7.366c0.004-0.229,0.184-0.407,0.409-0.407c0.224,0,0.403,0.179,0.409,0.405
	l0.204,7.368L22.272,29.633z M23.757,29.609v-0.002c-0.004,0.24-0.201,0.437-0.438,0.437c-0.238,0-0.434-0.196-0.438-0.435
	c0,0-0.166-3.518-0.166-3.523l0.166-8.765c0.004-0.239,0.2-0.436,0.438-0.436c0.237,0,0.434,0.196,0.438,0.436l0.184,8.767
	L23.757,29.609z M25.235,29.56v-0.003c-0.003,0.256-0.213,0.465-0.467,0.465c-0.254,0-0.464-0.209-0.468-0.463l-0.191-3.471
	l0.191-9.56c0.003-0.257,0.213-0.467,0.468-0.467c0.254,0,0.463,0.21,0.467,0.466l0.208,9.561L25.235,29.56z M37.859,30.053
	c-0.076,0-11.754-0.005-11.765-0.006c-0.254-0.026-0.455-0.243-0.458-0.503v-13.47c0.003-0.248,0.088-0.375,0.409-0.5
	c0.824-0.318,1.757-0.508,2.715-0.508c3.913,0,7.12,3.001,7.458,6.826c0.504-0.211,1.06-0.328,1.641-0.328
	c2.344,0,4.245,1.898,4.245,4.244C42.104,28.152,40.203,30.053,37.859,30.053z"/>
<path fill="#FFFFFF" d="M224.625,0C211.025,0,200,11.027,200,24.625c0,13.6,11.025,24.623,24.625,24.623
	s24.623-11.023,24.623-24.623C249.248,11.027,238.225,0,224.625,0z M237.03,19.66c0.012,0.267,0.017,0.534,0.017,0.803
	c0,8.201-6.242,17.657-17.656,17.657c-3.504,0-6.767-1.027-9.513-2.788c0.486,0.057,0.979,0.086,1.48,0.086
	c2.908,0,5.584-0.992,7.708-2.656c-2.715-0.051-5.007-1.845-5.796-4.31c0.378,0.073,0.767,0.111,1.167,0.111
	c0.566,0,1.114-0.075,1.635-0.218c-2.84-0.57-4.979-3.079-4.979-6.084c0-0.027,0-0.053,0.001-0.079
	c0.836,0.465,1.793,0.744,2.811,0.777c-1.666-1.115-2.761-3.013-2.761-5.166c0-1.138,0.306-2.204,0.84-3.12
	c3.061,3.755,7.634,6.225,12.792,6.483c-0.106-0.454-0.161-0.928-0.161-1.414c0-3.427,2.779-6.205,6.206-6.205
	c1.785,0,3.398,0.754,4.529,1.959c1.415-0.277,2.742-0.795,3.941-1.506c-0.464,1.45-1.448,2.666-2.729,3.434
	c1.256-0.15,2.452-0.484,3.565-0.978C239.295,17.691,238.242,18.785,237.03,19.66z"/>
</svg>
