<?xml version="1.0" encoding="utf-8"?>
<!-- Generator: Adobe Illustrator 15.0.2, SVG Export Plug-In . SVG Version: 6.00 Build 0)  -->
<!DOCTYPE svg PUBLIC "-//W3C//DTD SVG 1.1//EN" "http://www.w3.org/Graphics/SVG/1.1/DTD/svg11.dtd">
<svg version="1.1" id="Layer_1" xmlns="http://www.w3.org/2000/svg" xmlns:xlink="http://www.w3.org/1999/xlink" x="0px" y="0px"
	 width="50px" height="50px" viewBox="0 0 50 50" enable-background="new 0 0 50 50" xml:space="preserve">
<path fill="#FFFFFF" d="M25,0C11.193,0,0,11.196,0,25.001C0,38.809,11.193,50,25,50s25-11.191,25-24.999C50,11.196,38.807,0,25,0z
	 M31.618,24.896h-4.329c0,6.918,0,15.439,0,15.439h-6.417c0,0,0-8.434,0-15.439h-3.051v-5.451h3.051v-3.532
	c0-2.528,1.201-6.474,6.476-6.474l4.751,0.018v5.294c0,0-2.889,0-3.45,0c-0.562,0-1.359,0.282-1.359,1.483v3.21h4.891L31.618,24.896
	z"/>
</svg>
