<?xml version="1.0" encoding="utf-8"?>
<!-- Generator: Adobe Illustrator 15.0.2, SVG Export Plug-In . SVG Version: 6.00 Build 0)  -->
<!DOCTYPE svg PUBLIC "-//W3C//DTD SVG 1.1//EN" "http://www.w3.org/Graphics/SVG/1.1/DTD/svg11.dtd">
<svg version="1.1" id="Layer_1" xmlns="http://www.w3.org/2000/svg" xmlns:xlink="http://www.w3.org/1999/xlink" x="0px" y="0px"
	 width="830px" height="383px" viewBox="0 0 830 383" enable-background="new 0 0 830 383" xml:space="preserve">
<g>
	<path fill="#46515C" d="M16.242,182.502V52.118H1.864V38.578h42.226v13.541H29.711v130.384H16.242z"/>
	<path fill="#46515C" d="M88.132,182.502v-66.612H67.747v66.612H54.461V38.578h13.286v63.991h20.385V38.578h13.287v143.925H88.132z"
		/>
	<path fill="#46515C" d="M116.704,182.502V38.578h37.675V51.9H129.99v51.76h20.385v13.541H129.99v51.979h24.389v13.322H116.704z"/>
	<path fill="#46515C" d="M195.69,182.502V38.578h31.305c7.099,0,12.923,6.989,12.923,15.506v112.912
		c0,8.518-5.824,15.506-12.923,15.506H195.69z M226.631,51.9h-17.655v117.28h17.655V51.9z"/>
	<path fill="#46515C" d="M285.599,182.502v-57.876h-18.201v57.876h-13.287V54.084c0-8.518,5.824-15.506,12.922-15.506h19.111
		c7.098,0,12.922,6.989,12.922,15.506v128.418H285.599z M285.599,51.9h-18.201v59.404h18.201V51.9z"/>
	<path fill="#46515C" d="M346.75,182.502l-8.918-57.876h-10.557v57.876h-13.286V38.578h30.941c7.098,0,12.922,6.989,12.922,15.506
		v54.818c0,6.115-2.912,11.357-7.098,13.978l9.829,59.623H346.75z M344.566,52.118h-17.291v59.841h17.291V52.118z"/>
	<path fill="#46515C" d="M405.899,182.502l-4.004-64.646H385.15v64.646h-13.286V38.578h13.286v65.957h4.187l18.564-65.957h13.104
		l-18.747,65.957h0.364c8.008,0,11.648,4.586,12.376,16.38l4.004,61.588H405.899z"/>
	<path fill="#46515C" d="M431.558,182.502V38.578h37.676V51.9h-24.389v51.76h20.385v13.541h-20.385v51.979h24.389v13.322H431.558z"
		/>
	<path fill="#46515C" d="M491.618,183.813c-7.098,0-12.922-6.989-12.922-15.506v-20.311h13.287v22.495h15.653v-29.484L481.243,85.97
		c-2.548-5.023-2.548-10.265-2.548-10.265V52.773c0-8.518,5.824-15.506,12.922-15.506h16.38c7.281,0,12.923,6.989,12.923,15.506
		v20.311h-13.286V50.589h-15.653v26.645l26.573,55.037c2.549,5.242,2.366,10.046,2.366,10.046v25.99
		c0,8.518-5.642,15.506-12.923,15.506H491.618z"/>
	<path fill="#46515C" d="M543.488,182.502V52.118h-14.379V38.578h42.227v13.541h-14.379v130.384H543.488z"/>
	<path fill="#46515C" d="M611.736,182.502V38.578h31.305c7.099,0,12.923,6.989,12.923,15.506v112.912
		c0,8.518-5.824,15.506-12.923,15.506H611.736z M642.678,51.9h-17.655v117.28h17.655V51.9z"/>
	<path fill="#46515C" d="M701.645,182.502v-57.876h-18.201v57.876h-13.286V54.084c0-8.518,5.824-15.506,12.923-15.506h19.11
		c7.099,0,12.923,6.989,12.923,15.506v128.418H701.645z M701.645,51.9h-18.201v59.404h18.201V51.9z"/>
	<path fill="#46515C" d="M742.047,182.502c-7.098,0-12.922-6.989-12.922-15.506v-24.46h13.286v26.645h17.655v-48.048h-18.02
		c-7.098,0-12.922-6.771-12.922-15.288V38.578h13.286v69.232h17.655V38.578h13.469v128.418c0,8.518-5.824,15.506-12.923,15.506
		H742.047z"/>
	<path fill="#46515C" d="M799.56,183.813c-7.099,0-12.923-6.989-12.923-15.506v-20.311h13.286v22.495h15.653v-29.484L789.185,85.97
		c-2.548-5.023-2.548-10.265-2.548-10.265V52.773c0-8.518,5.824-15.506,12.923-15.506h16.38c7.28,0,12.923,6.989,12.923,15.506
		v20.311h-13.286V50.589h-15.653v26.645l26.573,55.037c2.548,5.242,2.366,10.046,2.366,10.046v25.99
		c0,8.518-5.643,15.506-12.923,15.506H799.56z"/>
	<path fill="#46515C" d="M14.89,344.502V235.607H2.882v-11.309h35.262v11.309H26.137v108.895H14.89z"/>
	<path fill="#46515C" d="M74.928,344.502v-55.633H57.905v55.633H46.81V224.298h11.095v53.444h17.023v-53.444h11.095v120.204H74.928z
		"/>
	<path fill="#46515C" d="M98.792,344.502V224.298h31.462v11.127h-20.367v43.229h17.023v11.31h-17.023v43.411h20.367v11.127H98.792z"
		/>
	<path fill="#46515C" d="M164.759,344.502V224.298h25.839c5.928,0,10.792,5.837,10.792,12.951v35.569
		c0,6.02-4.712,8.572-5.928,8.938c1.368,0.547,6.839,2.918,6.839,8.938v40.859c0,7.113-4.864,12.949-10.792,12.949H164.759z
		 M190.294,235.425h-14.439v40.858h14.439V235.425z M191.206,287.228h-15.352v46.147h15.352V287.228z"/>
	<path fill="#46515C" d="M241.668,344.502l-7.447-48.336h-8.816v48.336H214.31V224.298h25.839c5.928,0,10.792,5.837,10.792,12.951
		v45.783c0,5.107-2.432,9.485-5.928,11.674l8.208,49.796H241.668z M239.844,235.607h-14.439v49.979h14.439V235.607z"/>
	<path fill="#46515C" d="M262.645,344.502V224.298h11.095v120.204H262.645z"/>
	<path fill="#46515C" d="M296.691,345.598c-5.928,0-10.792-5.838-10.792-12.951v-96.492c0-7.114,4.864-12.951,10.792-12.951h16.415
		c5.928,0,10.64,5.837,10.64,12.951v18.97H312.65v-20.794h-15.655v100.14h17.023v-38.67h-7.752v-11.309h18.087v48.154
		c0,7.113-4.712,12.951-10.64,12.951H296.691z"/>
	<path fill="#46515C" d="M364.026,344.502v-55.633h-17.023v55.633h-11.095V224.298h11.095v53.444h17.023v-53.444h11.095v120.204
		H364.026z"/>
	<path fill="#46515C" d="M395.794,344.502V235.607h-12.007v-11.309h35.262v11.309h-12.007v108.895H395.794z"/>
	<path fill="#46515C" d="M427.714,344.502V224.298h31.462v11.127h-20.367v43.229h17.023v11.31h-17.023v43.411h20.367v11.127H427.714
		z"/>
	<path fill="#46515C" d="M477.873,345.598c-5.928,0-10.792-5.838-10.792-12.951v-16.963h11.096v18.787h13.071v-24.625
		l-22.039-45.966c-2.128-4.195-2.128-8.573-2.128-8.573v-19.152c0-7.114,4.864-12.951,10.792-12.951h13.679
		c6.08,0,10.792,5.837,10.792,12.951v16.963h-11.095v-18.788h-13.071v22.253l22.191,45.966c2.128,4.378,1.976,8.39,1.976,8.39
		v21.707c0,7.113-4.711,12.951-10.792,12.951H477.873z"/>
	<path fill="#46515C" d="M521.193,344.502V235.607h-12.007v-11.309h35.263v11.309h-12.008v108.895H521.193z"/>
	<path fill="#46515C" d="M605.703,344.502V235.607h-16.416v108.895h-11.095V224.298h11.095v6.749
		c1.521-4.56,3.953-6.749,8.816-6.749h8.207c5.928,0,10.792,5.837,10.792,12.951v107.253H605.703z"/>
	<path fill="#46515C" d="M629.568,344.502V224.298h11.095v120.204H629.568z"/>
	<path fill="#46515C" d="M663.615,345.598c-5.928,0-10.791-5.838-10.791-12.951v-96.492c0-7.114,4.863-12.951,10.791-12.951h16.415
		c5.928,0,10.64,5.837,10.64,12.951v18.97h-11.096v-20.794h-15.655v100.14h17.023v-38.67h-7.752v-11.309h18.087v48.154
		c0,7.113-4.711,12.951-10.639,12.951H663.615z"/>
	<path fill="#46515C" d="M730.949,344.502v-55.633h-17.023v55.633h-11.095V224.298h11.095v53.444h17.023v-53.444h11.096v120.204
		H730.949z"/>
	<path fill="#46515C" d="M762.718,344.502V235.607h-12.007v-11.309h35.262v11.309h-12.008v108.895H762.718z"/>
	<path fill="#46515C" d="M803.909,345.598c-5.928,0-10.792-5.838-10.792-12.951v-16.963h11.096v18.787h13.071v-24.625
		l-22.039-45.966c-2.128-4.195-2.128-8.573-2.128-8.573v-19.152c0-7.114,4.864-12.951,10.792-12.951h13.68
		c6.079,0,10.791,5.837,10.791,12.951v16.963h-11.096v-18.788h-13.071v22.253l22.191,45.966c2.128,4.378,1.976,8.39,1.976,8.39
		v21.707c0,7.113-4.712,12.951-10.791,12.951H803.909z"/>
</g>
<g>
	<rect fill="#46515C" width="830" height="10"/>
</g>
<g>
	<rect y="373" fill="#46515C" width="830" height="10"/>
</g>
</svg>
